<?xml version="1.0" encoding="utf-8"?>
<!-- Svg Vector Icons : http://www.onlinewebfonts.com/icon -->
<!DOCTYPE svg PUBLIC "-//W3C//DTD SVG 1.1//EN" "http://www.w3.org/Graphics/SVG/1.1/DTD/svg11.dtd">
<svg version="1.1" xmlns="http://www.w3.org/2000/svg" xmlns:xlink="http://www.w3.org/1999/xlink" x="0px" y="0px" viewBox="0 0 1000 1000" enable-background="new 0 0 1000 1000" xml:space="preserve">
<metadata> Svg Vector Icons : http://www.onlinewebfonts.com/icon </metadata>
<g><g transform="translate(0.000000,511.000000) scale(0.100000,-0.100000)"><path d="M6199.8,4776.7c-47.5-30.7-95-78.3-103.4-106.2c-41.9-145.3-547.9-2155.1-547.9-2183.1c0-25.2,279.5-33.5,1118.1-33.5h1115.3l27.9,106.2c131.4,497.6,394.1,1582.1,394.1,1626.8c0,30.7-33.5,92.2-75.5,139.8c-72.7,75.5-148.1,100.6-922.4,293.5c-464,114.6-860.9,209.6-880.5,209.6S6250.1,4804.6,6199.8,4776.7z M7052.3,3977.2c450-190.1,450-816.2,0-1006.3c-268.3-111.8-573,11.2-696,279.5C6152.3,3692.1,6605.1,4161.7,7052.3,3977.2z"/><path d="M2937.7,4368.6c-142.6-75.5-153.7-111.8-153.7-489.2V3530l489.2-536.7l492-539.5h598.2h601l-8.4,897.3l-8.4,897.3l-92.2,81.1c-89.5,81.1-92.3,81.1-438.9,81.1H4067v-257.2c0-142.5-11.2-243.2-22.4-223.6c-19.6,25.2-36.3,22.4-75.5-22.4c-44.7-50.3-55.9-53.1-97.8-14c-41.9,39.1-50.3,39.1-83.9,0c-33.5-39.1-41.9-39.1-97.8,14c-53.1,50.3-64.3,50.3-114.6,14c-27.9-22.4-61.5-41.9-72.7-41.9c-14,0-22.4,120.2-22.4,265.6v265.5h-229.2C3097,4410.5,2990.8,4396.5,2937.7,4368.6z"/><path d="M8522.6,4195.2c-11.2-44.7-128.6-480.8-262.8-972.7l-246-894.5l-3868.6-14c-3572.3-14-3874.2-16.8-3941.3-61.5c-39.1-25.2-78.3-78.3-89.4-117.4c-11.2-41.9,75.5-447.2,232-1098.5C768.6-699.2,989.4-1582.5,1023-1658c16.8-41.9,61.5-89.5,97.8-106.3c39.1-16.8,299.1-50.3,578.6-72.7c279.5-25.2,1143.3-100.6,1920.3-167.7c777.1-69.9,1864.4-162.1,2417.9-209.6c553.5-47.5,1006.3-89.5,1009.1-92.2c0-2.8,131.4-232,285.1-508.7l285.1-503.1l-3670.2-14c-3941.3-14-3765.2-8.4-3821.1-156.5c-44.7-117.4-33.5-178.9,53.1-265.5l81.1-81.1h505.9c279.5,0,505.9-2.8,505.9-5.6c0-5.6-30.7-69.9-69.9-145.4c-81.1-159.3-86.7-265.5-25.2-396.9c81.1-170.5,332.6-271.1,525.5-206.9c131.4,41.9,257.2,192.9,282.3,332.6c16.8,103.4-5.6,176.1-120.2,402.5c-5.6,11.2,1053.8,19.6,2353.6,19.6c1299.8,0,2364.8-5.6,2364.8-14c0-5.6-30.7-58.7-69.9-114.6c-89.5-131.4-95-321.5-14-452.8c148.1-240.4,539.5-248.8,724-16.8c86.7,111.8,81.1,360.6-11.2,486.4c-39.1,53.1-69.9,97.8-69.9,103.4c0,5.6,218,8.4,483.6,5.6c279.5,0,511.5,8.4,556.3,27.9c86.6,33.5,134.2,109,134.2,215.2c0,78.3-11.2,103.4-522.7,1009.1l-315.8,564.6l139.8,567.4c78.3,313.1,343.8,1341.7,587,2286.5s508.7,1979,589.8,2300.5l142.6,578.6h377.4c433.3,0,517.1,25.2,567.4,181.7c25.2,75.5,25.2,123,0,198.5c-53.1,162.1-131.4,178.9-779.9,178.9h-561.8L8522.6,4195.2z M1495.4,1794.1c0-8.4-33.5-55.9-75.5-109l-78.3-95l-92.2,89.4l-92.3,89.5l106.2,16.8C1414.3,1810.9,1495.4,1813.7,1495.4,1794.1z M2417.8,1794.1c0-8.4-33.5-55.9-75.5-109l-78.3-95l-92.2,89.4l-92.3,89.5l106.2,16.8C2336.7,1810.9,2417.8,1813.7,2417.8,1794.1z M5168.3,1788.5c8.4-14-22.4-61.5-67.1-103.4l-83.9-81.1l-86.7,83.9l-86.7,81.1l109,16.8C5118,1813.7,5151.6,1813.7,5168.3,1788.5z M7030,1785.7c0-16.8-36.3-67.1-78.3-111.8l-78.3-86.7l-92.3,95l-95,97.8l109,11.2C7002,1810.9,7030,1810.9,7030,1785.7z M1045.3,1623.6l139.8-162.1l-156.5-159.3c-86.6-89.4-164.9-156.5-170.5-150.9c-5.6,8.4-44.7,150.9-89.5,321.5l-78.3,310.3h106.2C891.6,1782.9,919.6,1766.2,1045.3,1623.6z M2018.1,1559.3l89.4-97.8l-159.3-162.1L1791.7,1140l-162.1,159.3l-162.1,159.3l159.3,162.1l159.3,162.1l72.7-61.5C1897.9,1685.1,1967.8,1615.2,2018.1,1559.3z M2893,1629.2l150.9-153.7L2879,1307.8L2714.1,1140L2552,1299.4l-162.1,159.3l159.3,162.1c89.4,89.4,167.7,162.1,176.1,162.1S2809.1,1713.1,2893,1629.2z M3262,1693.5l-89.5-92.2l-89.5,92.2l-92.2,89.5h181.7h181.7L3262,1693.5z M3815.4,1629.2l153.7-153.7l-167.7-167.7L3633.7,1140L3466,1307.8l-164.9,167.7l150.9,153.7c83.9,83.9,164.9,153.7,181.7,153.7C3650.5,1782.9,3731.6,1713.1,3815.4,1629.2z M4184.4,1693.5l-89.5-92.2l-89.5,92.2l-92.2,89.5H4095h181.7L4184.4,1693.5z M4737.9,1629.2l153.7-153.7l-167.7-167.7L4556.2,1140l-162.1,162.1l-162.1,164.9l142.6,156.5c81.1,89.5,159.3,159.3,178.9,159.3C4570.1,1782.9,4654,1713.1,4737.9,1629.2z M5660.3,1629.2l150.9-153.7l-164.9-167.7l-167.7-170.5l-164.9,170.5l-164.9,170.5l150.9,153.7c81.1,83.9,162.1,150.9,178.9,150.9C5495.4,1782.9,5576.4,1713.1,5660.3,1629.2z M6037.7,1699.1c-83.9-86.7-123-83.9-220.8,25.2l-53.1,58.7h176.1h178.9L6037.7,1699.1z M6487.7,1713.1c53.1-39.1,125.8-114.6,164.9-167.7l75.5-95L6568.8,1291l-159.3-159.3L6238.9,1305l-170.5,170.5l151,148.1c83.9,83.9,159.3,151,164.9,153.7C6389.9,1780.2,6437.4,1752.2,6487.7,1713.1z M7527.5,1604.1c64.3-69.9,117.4-137,117.4-150.9c0-11.2-69.9-89.5-153.7-173.3l-153.7-150.9l-167.7,164.9L7002,1458.7l159.3,162.1C7340.2,1802.5,7345.8,1802.5,7527.5,1604.1z M7868.5,1732.6c0-28-16.8-72.7-36.3-97.8c-30.8-44.7-41.9-41.9-131.4,50.3l-95,97.8h131.4C7846.2,1782.9,7868.5,1774.6,7868.5,1732.6z M3331.9,1190.4c81.1-81.1,148.1-159.3,148.1-176.1s-69.9-97.8-153.7-181.7l-153.7-150.9l-167.7,164.9l-167.7,164.9l159.3,162.1c89.4,89.4,167.7,162.1,173.3,162.1C3178.1,1335.7,3250.8,1271.4,3331.9,1190.4z M4254.3,1190.4c81.1-81.1,148.1-159.3,148.1-176.1s-69.9-97.8-153.7-181.7L4095,681.6l-153.7,150.9c-83.9,83.9-153.7,164.9-153.7,178.9c0,28,279.5,324.3,304.7,324.3C4100.6,1335.7,4173.2,1271.4,4254.3,1190.4z M5193.5,1173.6l159.3-162.1l-167.7-164.9l-167.7-164.9l-167.7,164.9L4682,1011.5l159.3,162.1c89.4,89.4,167.7,162.1,176.1,162.1S5104,1263,5193.5,1173.6z M6118.7,1170.8l164.9-167.7l-156.5-153.7c-86.7-86.7-167.7-156.5-178.9-156.5c-14,0-92.2,69.9-176.1,153.7l-150.9,150.9l55.9,61.5c36.3,44.7,248.8,254.4,276.7,276.7C5953.8,1335.7,6029.3,1260.2,6118.7,1170.8z M7041.2,1170.8l164.9-164.9l-148.1-156.5c-81.1-86.7-162.1-156.5-178.9-156.5c-19.6,0-100.6,69.9-184.5,153.7l-150.9,153.7l164.9,167.7c92.2,92.2,167.7,167.7,167.7,167.7S6951.7,1260.2,7041.2,1170.8z M1495.4,1154l153.7-153.7L1487,838.2l-159.3-159.3l-159.3,159.3l-162.1,162.1l153.7,153.7c83.9,83.9,159.3,153.7,167.7,153.7S1411.5,1237.9,1495.4,1154z M2415,1159.6c78.3-72.7,142.6-142.6,142.6-153.7c0-11.2-69.9-89.5-153.7-173.3l-153.7-153.7l-159.3,162.1l-162.1,159.3l153.7,153.7c83.9,83.9,162.1,150.9,170.5,148.1C2264.1,1296.6,2336.7,1232.3,2415,1159.6z M7712,1081.3c-67.1-279.5-58.7-271.1-159.3-170.5l-86.7,89.5l137,139.8c75.5,75.5,139.8,134.2,145.4,131.4C7751.1,1265.8,7737.2,1182,7712,1081.3z M2018.1,636.9l89.4-97.8l-159.3-162.1l-156.5-159.3l-162.1,159.3l-162.1,159.3l159.3,162.1l159.3,162.1l69.9-64.3C1895.1,762.7,1967.8,690,2018.1,636.9z M2879,701.2l156.5-156.5l-162.1-164.9l-162.1-162.1l-167.7,167.7L2375.9,553l153.7,153.7c83.9,83.9,162.1,153.7,173.3,153.7C2714.1,860.5,2795.2,790.6,2879,701.2z M3815.4,706.8L3969.2,553l-167.7-167.7l-167.7-167.7L3466,385.3L3301.1,553L3452,706.8c83.9,83.9,164.9,153.7,181.7,153.7C3650.5,860.5,3731.6,790.6,3815.4,706.8z M4737.9,706.8L4891.6,553l-167.7-167.7l-167.7-167.7l-164.9,164.9l-164.9,164.9L4374.5,704c81.1,86.7,162.1,156.5,178.9,156.5C4572.9,860.5,4654,790.6,4737.9,706.8z M5657.5,709.6l151-150.9l-58.7-81.1c-30.8-41.9-103.4-123-156.6-176.1l-100.6-95l-170.5,170.5l-170.5,170.5l148.1,151c83.9,83.9,164.9,156.5,178.9,156.5C5495.4,857.7,5576.4,793.4,5657.5,709.6z M6574.4,715.2c81-81.1,148.1-159.3,148.1-176.1c0-16.8-67.1-95-148.1-176.1l-148.1-148.2l-131.4,117.4c-215.2,187.3-218,204-44.7,377.4c81.1,83.9,156.6,150.9,162.1,150.9C6420.6,860.5,6493.3,796.2,6574.4,715.2z M7530.3,684.4c95-103.4,64.3-232-83.9-363.4l-111.8-103.4L7180.9,363c-83.9,78.3-151,156.5-151,173.3c0,16.8,64.3,95,145.4,176.1l142.5,145.3l72.7-53.1C7429.7,776.7,7494,723.6,7530.3,684.4z M1118,472c-36.3-39.1-72.7-64.3-81.1-55.9c-5.6,5.6-30.8,92.2-53.1,190.1l-41.9,176.1l123-120.2l123-120.2L1118,472z M2409.4-81.5l-159.3-162.1L2082.4-75.9L1914.7,89L2074,251.2l162.1,162.1l167.7-167.7l167.7-167.7L2409.4-81.5z M3477.2,91.8c0-16.8-67.1-97.8-150.9-181.7l-153.7-150.9L3004.8-75.9L2837.1,89l159.3,162.1l159.3,159.3l159.3-145.3C3401.7,186.9,3474.4,105.8,3477.2,91.8z M4271,251.2L4430.4,89L4262.7-75.9L4095-240.8L3927.2-75.9L3759.5,89l159.3,162.1c89.4,89.4,167.7,162.1,176.1,162.1C4103.3,413.3,4181.6,340.6,4271,251.2z M5196.3,248.4l164.9-167.7L5204.7-73.1c-86.7-86.6-167.7-156.5-178.9-156.5c-11.2,0-92.2,72.7-181.7,159.3L4682,91.8l159.3,156.5c89.4,83.9,167.7,156.5,176.1,159.3C5025.8,410.5,5106.8,337.8,5196.3,248.4z M6135.5-75.9c-83.9-83.9-164.9-153.7-181.7-153.7c-16.8,0-97.8,69.9-181.7,153.7L5621.2,77.9l164.9,167.7l167.7,167.7l167.7-167.7l167.7-167.7L6135.5-75.9z M7057.9-75.9c-83.9-83.9-164.9-153.7-181.7-153.7c-16.8,0-97.8,69.9-181.7,153.7L6543.6,77.9l164.9,167.7l167.7,167.7l167.7-167.7l167.7-167.7L7057.9-75.9z M1492.6,237.2c78.3-72.7,142.6-142.6,142.6-153.7c0-11.2-67.1-89.5-150.9-170.5L1333.3-238l-86.7,61.5C1168.3-120.6,1104,19.2,1104,133.8c0,44.7,195.7,257.2,226.4,246C1341.6,374.2,1414.3,309.8,1492.6,237.2z M1951-224l159.3-162.1l-162.1-159.3l-162.1-159.3l-164.9,167.7l-164.9,167.7l150.9,153.7c83.9,83.9,159.3,153.7,167.7,153.7C1783.3-61.9,1861.6-134.6,1951-224z M2873.4-221.2l159.3-159.3l-159.3-162.1l-162.1-162.1l-167.7,167.7l-167.7,167.7l153.7,153.7c83.9,83.9,159.3,153.7,167.7,153.7C2705.7-61.9,2786.8-134.6,2873.4-221.2z M3801.5-221.2l159.3-156.5l-164.9-164.9l-162.1-162.1L3466-537.1l-164.9,167.7L3452-215.6c83.9,83.9,162.1,153.7,173.3,153.7C3636.5-61.9,3714.8-131.8,3801.5-221.2z M4729.5-207.3c81.1-81,148.1-159.3,148.1-178.9c0-16.8-72.7-95-159.3-176.1L4559-707.6l-167.7,167.7l-167.7,170.5l150.9,148.1c83.9,83.9,164.9,150.9,181.7,153.7C4570.1-64.7,4648.4-126.2,4729.5-207.3z M5651.9-207.3c81-81,148.1-159.3,148.1-176.1c0-16.8-69.9-97.8-153.7-181.7l-153.7-151l-167.7,164.9l-167.7,164.9L5316.5-224c89.4,89.5,167.7,162.1,173.3,162.1C5498.2-61.9,5570.8-126.2,5651.9-207.3z M6580-212.9c170.5-173.3,170.5-178.9-36.4-380.1L6415-716l-167.7,164.9l-167.7,164.9L6238.9-224c89.5,89.5,167.7,162.1,176.1,162.1S6498.9-129,6580-212.9z M7382.2-89.9c30.8-30.7-69.9-531.1-106.2-531.1c-30.7,0-190.1,142.5-220.8,201.3c-25.2,50.3-11.2,78.3,117.4,206.8C7331.9-50.7,7340.2-47.9,7382.2-89.9z M1537.3-956.4c-58.7-61.5-117.4-111.8-125.8-111.8c-28,0-142.6,505.9-123,536.7c11.2,16.8,92.2-47.5,187.3-142.6l170.5-170.5L1537.3-956.4z M2409.4-1003.9L2250.1-1166l-167.7,167.7l-167.7,164.9L2074-671.3l162.1,162.1l167.7-167.7l167.7-167.7L2409.4-1003.9z M3340.2-998.3c-83.9-83.9-162.1-151-170.5-148.1c-11.2,5.6-92.2,75.5-178.9,159.3l-159.3,150.9l162.1,162.1l164.9,164.9l167.7-167.7L3494-844.6L3340.2-998.3z M7057.9-998.3c-83.9-83.9-164.9-153.7-181.7-153.7c-16.8,0-97.8,69.9-181.7,153.7l-150.9,153.7l164.9,167.7l167.7,167.7l167.7-167.7l167.7-167.7L7057.9-998.3z M4271-690.8l153.7-151l-156.5-170.5l-153.7-170.5l-162.1,159.3c-92.2,89.5-164.9,173.3-164.9,184.5c0,25.1,285.1,301.9,313.1,301.9C4111.7-537.1,4190-607,4271-690.8z M5210.3-688.1L5358.4-839l-164.9-170.5l-162.1-173.3l-167.7,167.7l-164.9,170.5l150.9,153.8c83.9,83.8,164.9,153.7,181.7,153.7S5129.2-604.2,5210.3-688.1z M6135.5-690.8l150.9-153.8l-150.9-153.7c-83.9-83.9-164.9-153.7-181.7-153.7c-16.8,0-97.8,69.9-181.7,153.7l-150.9,153.7l150.9,153.8C5856-607,5937-537.1,5953.8-537.1C5970.6-537.1,6051.6-607,6135.5-690.8z M1953.8-1149.3c100.6-100.6,150.9-170.5,131.4-181.7c-30.8-19.5-427.7,0-559.1,28c-64.3,14-61.5,19.6,83.9,167.7c81.1,83.9,156.5,151,164.9,151C1783.3-984.3,1864.4-1057,1953.8-1149.3z M2876.2-1146.5c86.7-81.1,156.5-156.6,156.5-167.7c0-106.2-497.5-131.4-601-30.8c-53.1,53.1-53.1,53.1,97.8,206.9c83.9,83.9,162.1,151,170.5,148.1C2711.3-995.5,2789.6-1065.4,2876.2-1146.5z M3798.7-1149.3l164.9-164.9l-89.4-86.7c-75.5-75.4-109-86.6-234.8-86.6c-120.2,2.8-159.3,14-234.8,83.9c-50.3,44.7-92.2,92.2-92.2,103.4c0,19.6,279.5,301.9,307.5,310.3C3628.1-987.1,3709.2-1059.8,3798.7-1149.3z M4777-1202.4l109-120.2l-131.4-123c-72.7-72.7-156.5-125.8-190.1-125.8c-36.3,0-117.4,55.9-195.7,131.4l-134.2,131.4l159.3,162.1C4572.9-964.8,4564.6-964.8,4777-1202.4z M5668.7-1146.5l159.3-162.1l-167.7-164.9l-167.7-164.9l-167.7,164.9l-167.7,164.9l159.3,162.1c89.4,89.5,167.7,162.1,176.1,162.1S5579.2-1057,5668.7-1146.5z M6574.4-1129.7c81-81,148.1-159.3,148.1-176.1s-69.9-97.8-153.7-181.7l-153.7-151l-167.7,164.9l-167.7,164.9l159.3,162.1c89.5,89.5,167.7,162.1,173.3,162.1C6420.6-984.3,6493.3-1048.6,6574.4-1129.7z M7127.8-1289c-19.6-95-39.1-106.2-92.2-53.1c-25.2,25.1-19.6,47.5,28,97.8C7136.2-1166,7153-1177.2,7127.8-1289z M7027.2-1691.5c-14-50.3-25.2-89.5-25.2-89.5c0-5.6-315.9,19.6-360.6,30.7c-64.3,14-61.5,19.6,83.9,167.7l148.2,151l89.4-86.6C7043.9-1596.5,7049.5-1613.3,7027.2-1691.5z M4150.9-1501.5c36.3-44.7,8.4-55.9-67.1-25.2c-25.2,8.4-36.3,28-27.9,41.9C4078.2-1448.3,4111.7-1453.9,4150.9-1501.5z M5115.2-1532.2c41.9-39.1,69.9-75.5,61.5-83.9c-5.6-8.4-78.3-5.6-156.6,5.6l-145.4,19.6l61.5,64.3C5014.6-1442.8,5020.2-1442.8,5115.2-1532.2z M6107.5-1588.1l125.8-125.8l-237.6,19.5c-131.4,8.4-243.2,22.4-248.8,28c-19.6,16.8,170.5,206.9,206.9,206.9C5970.6-1459.5,6040.4-1518.2,6107.5-1588.1z"/><path d="M1772.1,4108.6C1598.8,3991.2,466.7,2948.6,450,2892.7c-30.8-120.2-16.8-181.7,81.1-310.3l100.6-128.6h1470.3h1467.5l-192.9,218c-106.2,117.4-424.9,472.4-704.4,788.3c-279.5,315.9-547.9,601-595.4,637.3C1973.4,4170.1,1869.9,4175.7,1772.1,4108.6z"/></g></g>
</svg>