<?xml version="1.0" encoding="utf-8"?>
<!-- Svg Vector Icons : http://www.onlinewebfonts.com/icon -->
<!DOCTYPE svg PUBLIC "-//W3C//DTD SVG 1.1//EN" "http://www.w3.org/Graphics/SVG/1.1/DTD/svg11.dtd">
<svg version="1.1" xmlns="http://www.w3.org/2000/svg" xmlns:xlink="http://www.w3.org/1999/xlink" x="0px" y="0px" viewBox="0 0 1000 1000" enable-background="new 0 0 1000 1000" xml:space="preserve">
<metadata> Svg Vector Icons : http://www.onlinewebfonts.com/icon </metadata>
<g><path d="M912.2,622.5c-53.6,194.2-231.6,336.9-442.9,336.9C215.7,959.4,10,753.7,10,500C10,246.3,215.7,40.6,469.4,40.6c211.3,0,389.2,142.7,442.9,336.9h-63.9c-51.7-160-201.8-275.6-378.9-275.6C249.5,101.9,71.3,280.1,71.3,500c0,219.9,178.2,398.1,398.1,398.1c177.1,0,327.3-115.7,378.9-275.6H912.2L912.2,622.5z M882.8,469.4L990,622.5H775.6L882.8,469.4z"/></g>
</svg>